<svg width="192" height="192" viewBox="0 0 192 192" fill="none" xmlns="http://www.w3.org/2000/svg">
<circle cx="96" cy="96" r="78" fill="white"/>
<path fill-rule="evenodd" clip-rule="evenodd" d="M95.25 166.5C134.6 166.5 166.5 134.6 166.5 95.25C166.5 55.8997 134.6 24 95.25 24C55.8997 24 24 55.8997 24 95.25C24 134.6 55.8997 166.5 95.25 166.5ZM135.911 122.667C141.185 114.774 144 105.493 144 96H96V48C86.5065 48 77.2262 50.8152 69.3326 56.0895C61.4391 61.3638 55.2868 68.8603 51.6538 77.6312C48.0208 86.4021 47.0702 96.0532 48.9223 105.364C50.7744 114.675 55.346 123.228 62.0589 129.941C68.7718 136.654 77.3246 141.226 86.6357 143.078C95.9468 144.93 105.598 143.979 114.369 140.346C123.14 136.713 130.636 130.561 135.911 122.667Z" fill="#C4C4C4" fill-opacity="0.5"/>
</svg>
