<svg xmlns="http://www.w3.org/2000/svg" preserveAspectRatio="xMidYMid" version="1.0"
   viewBox="0 0 1280 1280">
   <g fill="currentColor" color="currentColor" id="clock"  width="1280" height="1280">
      <path id="minutesArrow" transform-origin="center center" d="m637.37 702.138 25.628-63.71-21.15-454.22c-.546-4.863-8.176-4.937-8.507.04L612.324 638.68Z" />
      <path id="secondsArrow" transform-origin="center center" d="M627.15 824.01h21l-.11-125.51-6.04-4.48V137.685h-8V694.02l-6.96 4.48z" />
      <path id="hoursArrow" transform-origin="center center" d="m638.078 701.266-25.627-62.671 23-328.747c.234-3.288 5.474-3.28 5.758.04L662.5 637.878z" />
      <path
         id="outterBorder" d="M609.5.6C606.8.8 598 1.4 590 2c-118.4 8.7-237.3 53.3-332.5 124.9C129.6 223 42.3 361.5 12.1 516 3.5 560 .6 591.7.6 640c0 40.2 1.1 56.9 6 91 17.6 122.9 69.5 235.8 151.8 330.5 12.4 14.2 42.9 44.9 57.6 57.8 60.2 53 127.5 93.3 202.3 121.1 52.2 19.3 106.1 31.5 166.2 37.3 25.3 2.4 85.7 2.4 111 0 59.9-5.8 114.2-18 166.2-37.3 24.8-9.2 35.8-14 62.8-27.4 143.5-71 255.5-193.9 313-343.5 36.6-95.1 49.9-199 38.4-301-21.1-187.8-122.8-354.6-281.4-461.5-27.9-18.8-76.6-44.9-108-57.8C823.1 23.2 764.9 8.9 696 2.4 681.5 1 620.6-.2 609.5.6zm83.6 37.9C818.1 49.7 933.5 97.9 1030 179c17.4 14.6 56.4 53.6 71 71 112.2 133.5 161.2 304.8 136.4 477-16 111.4-62.1 214-136 302.5-20.6 24.6-56.8 59.9-83.9 81.7-83.2 67-184.7 111.1-290.6 126.3-32.4 4.6-49.9 5.8-86.9 5.8-37.1.1-55.4-1.2-87.5-5.9-158.2-23.2-299.4-107.3-396-235.9-51.2-68.2-87.3-146.6-106-230.4-9.9-44.7-13.8-81.3-13.9-130.6 0-49.4 3.9-86.9 13.9-131.6 21.2-95 63.5-180.7 126.9-256.9 14.9-18 54.6-57.9 72.5-72.9 76.3-64.1 163.4-107.3 259-128.6 34.5-7.6 63.4-11.4 105.6-13.9 12.6-.8 62.7.4 78.6 1.9z" />
      <path
         id="innerBorder" d="M597.5 54.1C469 64.2 354.9 111.3 256.9 194.7c-14.5 12.3-49.6 47.4-62.2 62.2-82.2 96.4-130.1 211.3-140.2 336.4-2 24.4-2 69 0 93.4 10.2 125.9 58.7 241.5 141.9 338.3 12.4 14.5 45.6 47.5 60.1 59.9 88.8 75.9 193.3 122.6 308 137.6 46.1 6 104.9 6 151 0 93.7-12.3 183.2-46.7 259-99.7 145.9-102 236.8-259.9 251-436.1 1.9-24.4 1.9-69 0-93.4-9.3-114.5-51.3-223.2-120.9-312.7-21.8-28-57-65.1-81.5-85.9-98.6-83.8-213-130.9-342-140.7-15.4-1.1-68.6-1.1-83.6.1zm73 4.9c104.3 5.7 202.1 37.7 288.5 94.4 18.7 12.3 43.2 30.7 59.5 44.6 15.4 13.3 50.2 48.1 63.5 63.5 29.6 34.6 57.5 76.6 77.6 116.8 34.4 68.6 53.3 135.9 60.5 215.7 1.6 17.7 1.7 72.6.1 91-10.7 124.5-55.4 233.6-134.6 329-15.4 18.6-52.9 56.2-71.6 71.6-82 68.1-175 111-278.5 128.3-33.1 5.5-58.2 7.5-95.5 7.5s-62.4-2-95.5-7.5c-103.4-17.3-196.6-60.3-278.5-128.3-18.7-15.4-56.2-53-71.6-71.6-29.4-35.4-51.6-68.8-71.5-107.5-36.1-70.3-55.5-138.2-63-220.5-1.6-17.4-1.6-74.6 0-92 7.3-80.3 26-146.9 60.5-215.8 20.2-40.2 47.9-82 77.6-116.7 13.3-15.4 48.1-50.2 63.5-63.5C375 100.9 522 50.9 670.5 59z" />
      <path
         id="rows" d="M609.5 69.6c-61.8 4-116.7 15.5-170 35.6-161.9 61.1-287.3 191.4-341.6 355C68.1 550.1 61.2 648 78.1 742c15.5 85.8 51.1 168 103.2 238 128.9 173.3 342.2 259 554.7 222.9 156.5-26.6 294.9-117.5 382.2-250.9 45-68.7 74.4-146.3 86.7-228 4.4-29.2 5.5-46.9 5.5-84s-1.1-54.8-5.5-84c-6.6-43.9-18.9-89.4-34.9-128.5-3.3-8.3-6.8-17-7.8-19.5-.9-2.5-1.9-4.7-2.2-5-.3-.3-4-7.7-8.4-16.5-20-40.7-48-83.2-78.7-119-14.5-17-47.8-49.9-64.9-64.1C916.5 127.2 811.3 83 694 71.5c-15.7-1.6-70.6-2.8-84.5-1.9zm76.4 3.4c5.7.5 10.4 1.1 10.5 1.2.5.7-1.1 26.9-1.6 27.4-.3.3-6.8 0-14.4-.6-16.9-1.3-64.8-1.3-80.4 0-6.3.5-12.2 1-13.1 1-1.3 0-1.9-1.9-2.8-9.8-.7-5.3-1.4-11.6-1.7-13.9l-.6-4.1 6.3-.7c23-2.4 73.8-2.7 97.8-.5zM581.4 88.5c.8 7.1 1.2 13.2.8 13.6-.4.3-6.8 1.3-14.2 2.3-7.4.9-19.3 2.8-26.5 4.1-7.1 1.3-13.1 2.3-13.2 2.1-.2-.1-1.4-5.4-2.8-11.7-1.4-6.3-2.7-12.4-3-13.5-.4-2 .2-2.3 10.8-4.3 10-1.8 34.4-5.5 42.2-6.3 1.7-.2 3.3-.1 3.7.2.3.3 1.3 6.3 2.2 13.5zm136.1-12c11.5 1.5 33.2 5.1 36.6 6.1 1.4.4 1.3 2-1.2 14.2-1.4 7.5-3.1 13.6-3.6 13.5-5.9-1.1-39.5-6.4-44.7-7l-6.9-.8.2-8.5c.1-4.7.4-11.1.7-14.2l.6-5.6 3.2.4c1.7.2 8.5 1.1 15.1 1.9zM520 84.7c0 .5 1.4 6.6 3 13.8 1.6 7.1 2.8 13 2.7 13.1-.1 0-4.7 1.1-10.2 2.4-8.6 1.9-35.3 9.2-39 10.6-1.1.4-6-11.7-9.9-24.2-.6-2 .1-2.4 7.8-4.8 9-2.8 42.2-11.5 44.4-11.5.6-.1 1.2.2 1.2.6zM781.1 89c25.2 6.4 33.5 9.2 33.1 11.1-.3 1.6-8.3 24.2-8.7 24.7-.1.1-7.2-1.7-15.6-4.2-8.5-2.4-19.9-5.4-25.4-6.6-5.5-1.3-10.4-2.6-10.9-3.1-.7-.6 2.9-24.1 4.1-26.2.8-1.3 3.8-.8 23.4 4.3zm-315 16.7c1.2 3.8 3.3 9.7 4.5 13.2 1.3 3.6 2.3 6.6 2.1 6.7-.1.1-7.2 2.7-15.9 5.8-8.6 3.1-19.8 7.4-24.9 9.6-5.1 2.2-9.3 3.9-9.5 3.7-.7-.8-12.5-25-12.2-25.2 1.9-1.4 50.7-20.3 53-20.5.3 0 1.6 3 2.9 6.7zm385.8 6.2c9 3.7 15.9 6.7 16.9 7.6.9.7-11.2 25.5-12.2 25.1-7.9-3.5-27.5-11.1-36.1-14.1-6-2.1-11.4-4.1-11.8-4.5-.5-.4 1.2-6.6 3.8-13.8l4.7-13 12.1 4.3c6.7 2.4 16.9 6.2 22.6 8.4zM677.5 103c158.4 11.6 300.2 89.4 395.2 217 51.5 69.1 86.1 151.9 99.2 237.5 4.7 30.4 5.5 42.5 5.6 81.5 0 38.2-.6 48.4-4.6 76.5-22.9 162.2-118.5 304.9-260.4 388.7-67.2 39.7-141 63.4-223.5 72-16.8 1.7-81.2 1.7-98 0-84.5-8.8-157.8-32.8-227.5-74.5-100.6-60.1-180.1-153.4-223.5-262.1-20.8-52.3-33.1-106.4-37.1-164.1-1.5-21.4-.6-70.7 1.6-90.5 9.9-89.4 38.1-168.6 86-241 66.4-100.5 164.4-176.2 277-213.9 47.3-15.8 83.9-23 140-27.4 10-.8 57.4-.6 70 .3zm217.7 28.6c7.3 3.6 19.6 10.3 27.3 14.7 13.8 7.8 47.8 29.8 48.9 31.5.6.9-15.3 22.8-16.3 22.5-.3-.1-7.7-4.9-16.3-10.6-19.3-12.9-43.3-26.7-63.6-36.4L860 146l1.4-3.3c.7-1.7 3.3-7.5 5.6-12.8l4.2-9.7 5.3 2.4c2.9 1.2 11.3 5.3 18.7 9zM414 133c3.3 6.6 6 12.2 6 12.5 0 .3-6.9 3.8-15.2 7.8-20.1 9.6-42.6 22.5-62.3 35.6-8.8 5.8-16.5 10.9-17.2 11.4-.7.4-3.8-3.1-8.7-10.3-4.2-6-7.6-11.4-7.6-11.9 0-1.5 31.8-22.3 49-32.1 13.6-7.8 47.5-25 49.2-25 .4 0 3.5 5.4 6.8 12zm-99.6 57.9c4.2 6 7.6 11.1 7.6 11.3 0 .3-5.4 4.6-12 9.7-6.5 5.1-15.5 12.4-19.9 16.2-4.5 3.8-8.4 6.9-8.9 6.9s-5.3-4.2-10.7-9.3l-9.9-9.3 4.2-3.8c11.5-10.4 39.6-32.6 41.3-32.6.4 0 4.2 4.9 8.3 10.9zm671.4-2.5c9.4 7.3 21.1 16.7 28.6 23.4l3.7 3.2-9.2 10c-5.1 5.5-9.6 10-10.1 10s-4.6-3.2-9.1-7.1c-4.5-3.9-13.5-11.2-20-16.2-7-5.5-11.6-9.6-11.3-10.4 1.5-3.7 15.3-21.2 16.4-20.8.7.3 5.7 3.8 11 7.9zm55.2 48.5c11 10.9 20 20.3 19.9 20.7 0 .9-20.2 17.4-21.1 17.4-.3 0-9.1-8.6-19.7-19l-19.2-19.1 9.2-9.9c5.1-5.5 9.6-10 10.1-10s9.8 8.9 20.8 19.9zm-771.9-9.2 9.6 9.8-19.4 19.1-19.4 19.2-10.4-9-10.4-9.1 5.7-6.5c6-6.9 33.1-33.2 34.1-33.2.4 0 5 4.4 10.2 9.7zm-41 40.9c5.5 4.7 9.9 8.8 9.9 9.2 0 .4-3.6 4.9-8 10s-11.8 14.2-16.5 20.3c-6.1 7.7-9 10.7-10 10.2-3-1.7-21.4-14.8-21.5-15.3-.1-1.8 33.8-42.9 35.4-43 .4 0 5.3 3.8 10.7 8.6zm842.5-.1c30.5 35.1 57.3 75.3 79.3 119.2l8.1 16.3-2.8 1.4c-1.5.8-7.3 3.5-13 5.9l-10.2 4.6-5.4-11.4c-10.7-22.6-28.3-52.5-43.5-73.9l-7-10 10.7-7.8c5.9-4.3 10.9-8.4 11.1-9 .6-1.9-2.1-.3-12.3 7.1-5.4 3.9-10.2 7.1-10.6 7.1-.4 0-4.5-4.8-9.1-10.8-7.2-9.1-15.7-19.4-23.1-27.8-1.9-2.1-1.8-2.2 8.9-10.8 5.9-4.7 11-8.5 11.3-8.4.4.2 3.8 3.9 7.6 8.3zm-878.4 44.8c5.4 3.7 10 7.2 10.3 7.7.3.5-2.4 5-6.1 10.2-14.6 20.6-32.4 51-43 73.3l-5.4 11.3-12.7-5c-7.1-2.8-13-5.3-13.2-5.5-.8-.6 15.7-33.1 24.1-47.8 15-26.1 33.2-53 35.1-51.8.7.4 5.6 3.8 10.9 7.6zm969.4 99.4c7 15.6 18.1 45.9 17.1 46.9-1.1 1.1-25.7 8.2-26.1 7.5-.2-.3-2.7-6.7-5.4-14.1-2.8-7.4-7.1-18.4-9.6-24.3l-4.5-10.8 7.7-3.4c4.2-1.9 9.5-4.4 11.7-5.4 2.2-1.1 4.6-2 5.3-2 .7-.1 2.4 2.5 3.8 5.6zm-1030-1.1c4.9 2 10.3 4.2 12.1 4.9l3.2 1.4-4.5 10.8c-2.5 5.9-6.9 17.1-9.7 24.8-2.8 7.7-5.1 14.1-5.2 14.2-.2.4-26-6.9-26.6-7.5-1.4-1.5 18.6-52.2 20.6-52.2.6 0 5.1 1.6 10.1 3.6zm1049.7 52.6c.3 1.3 2.6 9.3 5.1 17.8 4.9 16.6 9.1 33.9 8.4 34.6-.5.4-20.3 4.9-24.6 5.6-2.2.3-2.5-.5-6.7-16.7-2.4-9.4-5.7-21.1-7.3-26.2l-2.9-9.2 5.6-1.7c3.1-.9 9-2.7 13.1-4 9.4-2.8 8.7-2.8 9.3-.2zm-1071.5 1.2c4.8 1.4 10.6 2.9 12.8 3.5l4.2 1.1-3 9.3c-1.6 5-4.9 16.8-7.3 26.2-2.9 11.3-4.8 17-5.7 16.9-.7-.1-6.8-1.1-13.5-2.4-11.2-2.1-12.3-2.5-12.3-4.4 0-5.4 13.6-52.6 15.1-52.6.6 0 4.9 1.1 9.7 2.4zM1197 524.2c2.1 9.8 6.8 39.3 7.2 44.8l.3 5.4-13.2 2c-7.3 1.1-13.5 1.7-13.8 1.5-.2-.3-1.4-7-2.5-15-1.2-7.9-3.1-19.7-4.4-26.1l-2.3-11.7 9.6-2.1c5.3-1.2 11-2.5 12.6-3 5-1.4 5.3-1.2 6.5 4.2zM98.5 522.5c7.1 1.4 13 2.5 13 2.5.1 0-.9 5.3-2.1 11.7-1.3 6.5-3.2 18.3-4.4 26.3-1.2 7.9-2.3 14.6-2.6 14.9-.6.6-25.8-3-26.7-3.9-1.2-1.1 5.1-42.5 7.9-52.3.7-2.1-.6-2.2 14.9.8zm-8.2 56.4c6.4 1 11.9 2 12.1 2.2.2.2-.1 4-.6 8.4-2.3 21.3-2.5 78.9-.3 97.2l.6 5.2-4.3.5c-2.4.3-8.6.8-14 1.1-8.7.6-9.7.4-10.2-1.2-1.3-4.7-2.8-48.5-2.2-66.2.7-19.9 2.2-42.8 3.1-46.9.6-2.6.7-2.6 15.8-.3zm1115.1-.2c3.6 12 3.9 111.3.4 114.9-.5.5-26.7-3.1-27.3-3.8-.1-.2.1-5.3.6-11.3 1.8-22.8.7-84.8-1.6-95.3-.3-1.2-.4-2.2-.3-2.3 2.3-.5 23-3.7 25-3.8 1.7-.1 2.8.5 3.2 1.6zm.4 117.8c.9.8-7.1 54.1-8.3 55.4-.7.6-26.5-4.1-27-5-.3-.3.4-5.6 1.5-11.5 1.7-9 6-39.6 6-42.3 0-.6 26.9 2.7 27.8 3.4zM104.1 709.7c1 8.2 2.8 19.9 3.9 25.8 1 6 1.8 11 1.7 11.1-.4.4-27.2 5.3-27.5 5-1.1-1.1-8.8-54.3-8-55.2.4-.3 27.1-2 27.6-1.8.2.1 1.2 6.9 2.3 15.1zm9.1 51.6c1.5 6.7 4.6 18.5 6.8 26.2 2.1 7.6 3.8 14 3.7 14.1-1.1 1.1-26.1 7.4-26.7 6.8-1.5-1.5-11.3-38.3-13.5-50.6-.7-3.6-.7-3.7 3.2-4.4 2.1-.4 7.9-1.5 12.8-2.5 5-.9 9.5-1.8 10-1.8.6-.1 2.2 5.4 3.7 12.2zm1070.7-9.2c6.4 1.2 12 2.5 12.4 2.9 1.3 1.2-11.5 52.5-13.6 54.6-.3.3-6.4-1.3-13.6-3.6-10.8-3.4-13.1-4.5-12.7-5.8 3-9.8 8-28.4 10.2-38.1 1.9-8.5 3.2-12.1 4.2-12.1.8 0 6.6 1 13.1 2.1zM129 816.2c2.3 6.8 6.4 17.8 9.1 24.6 2.7 6.8 4.9 12.7 4.9 13.2 0 .6-5.5 3.7-12.1 7.1-9.5 4.7-12.4 5.8-13 4.7-2.8-4.3-20.8-53.4-19.8-54.1.4-.4 24.8-7.5 26-7.6.4-.1 2.6 5.4 4.9 12.1zm1041.1-7.5c13.9 4.3 13.3 1.2 4.8 24.9-7.5 20.7-12.4 32-13.8 31.7-2.8-.7-24.1-10.6-24.1-11.3 0-.5 2.9-8.2 6.4-17.2 3.5-8.9 7.6-20 9.1-24.6 2.1-6.4 3.1-8.2 4.2-7.8.9.4 6.9 2.3 13.4 4.3zM147.6 863.2c9.2 21.1 29.6 57.5 44.7 79.6 3.9 5.8 6.6 10.7 6.1 11.1-.5.5-5.6 4.3-11.3 8.5l-10.3 7.6-3.1-4.3c-6.6-9-19.8-29.9-27.7-43.7-8.7-15-26-49.6-26-51.7 0-1.1 22-13.1 24.2-13.2.4-.1 1.9 2.7 3.4 6.1zm1000.5-1.1c6.3 2.8 11.8 5.5 12.3 5.9 1.8 1.7-21.9 47.6-37.7 73-4.6 7.4-17.6 26.9-19.3 28.8-.2.3-9.5-5.9-23.2-15.4-.2-.1 3-5.1 7.1-11 15.1-22.1 35.7-58.7 45.1-80.2 1.5-3.4 3.1-6.2 3.5-6.2.4 0 5.9 2.3 12.2 5.1zM207.6 964.2c3.8 5.1 11.5 14.9 17.2 21.7 5.7 6.7 10.2 12.4 10 12.5-.2.1-4.9 4.1-10.5 8.9-5.6 4.8-10.4 8.7-10.7 8.7-.8 0-19.1-22.1-28-33.8L178 972l11.2-8.4c6.2-4.7 11.3-8.5 11.4-8.6 0 0 3.2 4.2 7 9.2zm883.6.5 10.8 7.4-7.7 10.1c-10.3 13.6-27.1 33.8-28.2 33.8-1 0-20.5-15.8-20.9-17-.2-.5 4.3-6.4 10-13.2 5.7-6.7 13.2-16.2 16.7-21 3.6-4.8 6.9-8.4 7.5-8.1.6.4 5.9 4 11.8 8zm-817.3 74.1c.1.4-3.8 5.3-8.6 10.9l-8.7 10.2-6.5-5.9c-6-5.3-13.1-12.5-29.4-29.6l-5.9-6.1 10.7-9.1 10.7-9.1 18.8 19c10.4 10.5 18.9 19.4 18.9 19.7zm779.7-29.6c5.7 4.6 10.2 8.9 10.1 9.5-.3 1.7-26.2 28.9-33.3 34.9l-5.5 4.7-9.8-9.7-9.7-9.7 18.5-18.9c10.2-10.4 18.8-18.9 19-18.9.2-.1 5 3.6 10.7 8.1zm-765.4 41.1c8.4 7.2 27.4 22.4 29.6 23.6 1 .6-.6 3.6-6.9 12.4l-8.2 11.6-4.5-3.2c-5.4-3.9-26.8-21.4-34.5-28.2l-5.6-5 9.2-10.7c9-10.4 9.2-10.6 11.2-8.9 1.1 1 5.5 4.8 9.7 8.4zm728.9 15.5c-8.2 7.3-29.5 24.7-35.3 28.9l-4.4 3.2-8.7-10.4c-4.8-5.8-8.7-10.9-8.7-11.4s1.2-1.7 2.8-2.6c3.8-2.5 24.2-19 33.2-26.9l7.5-6.5 10 10 10 10zm-682 20.3c17.7 12.3 40.5 25.8 61.9 36.7 10.2 5.1 18.6 9.7 18.8 10.2.4 1-8.6 23.1-9.9 24.4-1 1.1-26.3-11.1-44.9-21.7-23.4-13.3-56.4-35-55.8-36.7 1.2-3.3 15.5-22.7 16.4-22.1.5.3 6.6 4.5 13.5 9.2zm631.3 2.1c4.7 5.6 8.6 10.5 8.6 10.9 0 1.3-24.6 17.8-43.5 29.2-16.1 9.7-49.8 27.5-55 29.1-1.8.5-2.8-1-8.2-11.8l-6.2-12.4 18.3-9.1c20.9-10.5 47.8-26.2 64.6-38 6.3-4.4 11.8-8 12.2-8.1.3 0 4.5 4.6 9.2 10.2zm-532 51.7c7.8 3.2 19.1 7.5 25.1 9.6 6.1 2.1 11.1 3.9 11.2 4 .2.1-1.7 6-4.1 13.1-4 12-4.5 12.9-6.7 12.6-4.3-.5-49.6-17.7-51.6-19.6-.7-.6 10.2-25.6 11.1-25.6.5 0 7.3 2.6 15 5.9zM866 1146c3.3 6.6 6 12.3 6 12.8 0 1.4-39.3 17.1-51.5 20.6-1.8.5-2.5-.8-6.3-11.7-2.3-6.7-4.2-12.7-4.2-13.3 0-.6 5.3-3 11.8-5.3 6.4-2.3 17.3-6.6 24.2-9.5 6.9-3 12.8-5.4 13.2-5.5.5 0 3.5 5.3 6.8 11.9zm-352 19.6c6.3 1.5 11.6 2.8 11.7 2.8.1.1-1.1 6-2.7 13.1-1.6 7.2-3 13.3-3 13.8 0 .4-1 .5-2.2.2-16.8-3.7-34.9-8.5-47.5-12.6l-6.1-2 4.4-13.3 4.5-13.3 14.7 4.3c8.1 2.4 19.9 5.6 26.2 7zm298 2.2c3.4 9.8 4 12.6 3 13.2-3 1.9-44.6 13.2-51.9 14.2-2.3.3-2.6-.2-5.2-11.2-1.6-6.3-2.8-12.4-2.9-13.6 0-1.9 1.4-2.4 13.3-5.3 7.2-1.8 18.8-4.9 25.7-7 6.9-2.1 12.8-3.5 13.1-3.2.3.3 2.5 6.2 4.9 12.9zm-265 4.6c8 1.3 18.6 3 23.5 3.6 5 .6 9.5 1.3 10.1 1.5.7.2.6 4-.2 12.6-.7 6.8-1.3 13-1.3 13.6-.1 1.8-4.6 1.6-20.2-.7-11.8-1.8-36.1-6-36.6-6.4-.2-.1 3.9-20.2 5.2-25.4.5-1.9 1.1-2.3 2.8-1.9 1.2.3 8.7 1.7 16.7 3.1zm205.9.3c2.2 7.8 5.5 23.3 5 23.7-1.7 1.6-55.3 9.6-56.5 8.4-.6-.7-3.3-20.2-3.4-24.8 0-2.6.1-2.6 13.8-4.4 7.5-.9 19.1-2.8 25.7-4 6.6-1.3 12.5-2.4 13.2-2.5.7 0 1.7 1.6 2.2 3.6zM601 1179c16.7 1.4 61 1.3 78.9 0 7.9-.6 14.6-.8 14.9-.5.5.5 4.2 26.7 3.8 27.2-.8 1.1-36.2 2.7-58.6 2.7-23.2 0-57.5-1.6-58.6-2.7-.2-.2 2.2-25.6 2.5-27.5.1-.4 4.1-.2 17.1.8z" />
      <path
         id="numbers" d="M624.5 77.5c-3.3 3.2-3.6 11.4-.5 14.5 4.5 4.5 14.3 1.4 14.3-4.5 0-3.8-2.8-5.7-7.6-5.3-3.3.3-3.7.1-3.5-1.7.3-1.8.9-2 5.7-1.7 5.5.3 5.5.3 3.6-1.8-2.7-2.9-8.9-2.7-12 .5zm8.1 7.9c1.5 1.2 1.7 1.8.8 3.3-1.6 2.6-5 2.8-6.3.4-.8-1.5-.7-2.3.5-3.5 1.9-2 2.5-2 5-.2zM643.1 77.6c-2.9 3.6-2.9 11.6-.1 14.4 2.6 2.6 8.9 2.7 12.1.1 1.9-1.6 2.3-2.8 2.3-7.6s-.4-6-2.3-7.6c-3.6-2.9-9.5-2.5-12 .7zM652 80c1.5 2.9.8 9.1-1.1 10.3-3.2 2-4.9.1-4.9-5.6 0-3 .3-5.7.7-6 1.3-1.4 4.3-.6 5.3 1.3zM665 135.9c-9.8 3.2-16.2 11-17.6 21.4-.6 4.3-.6 4.4 2.6 5.1 1.8.3 5.2.6 7.6.6 4.2 0 4.4-.1 5.3-3.8 1.9-6.8 6.4-9.9 12.6-8.8 5.1 1 7.5 4.7 7.5 11.5 0 7.4-2.8 12.2-15.1 25.3C651 205.4 646 214 646 225v7l27.3-.2 27.2-.3v-15l-17.7-.3c-14.1-.2-17.8-.5-17.8-1.6 0-2 3.3-6 15.6-18.6 7.6-7.9 12.2-13.6 14.5-18 3.2-6.1 3.4-7.1 3.4-16.5 0-7.8-.4-10.8-1.9-13.5-4.6-8.6-10.7-12.2-21.6-12.6-4.1-.2-8.6 0-10 .5zM1025.63 365.66c-9.8 3.2-16.2 11-17.6 21.4-.6 4.3-.6 4.4 2.6 5.1 1.8.3 5.2.6 7.6.6 4.2 0 4.4-.1 5.3-3.8 1.9-6.8 6.4-9.9 12.6-8.8 5.1 1 7.5 4.7 7.5 11.5 0 7.4-2.8 12.2-15.1 25.3-16.9 18.2-21.9 26.8-21.9 37.8v7l27.3-.2 27.2-.3v-15l-17.7-.3c-14.1-.2-17.8-.5-17.8-1.6 0-2 3.3-6 15.6-18.6 7.6-7.9 12.2-13.6 14.5-18 3.2-6.1 3.4-7.1 3.4-16.5 0-7.8-.4-10.8-1.9-13.5-4.6-8.6-10.7-12.2-21.6-12.6-4.1-.2-8.6 0-10 .5zM596.2 144.1l-10.2 8.1v6.9c0 3.8.3 6.9.7 6.9.5 0 2.9-1.7 15.1-10.8l3.2-2.4V218h-19v14h53v-14h-18l-.2-40.8-.3-40.7-7.1-.3-7-.3zM365.5 215.7l-9.7 7.8-.2 7.3c0 3.9.1 7.2.4 7.2.2 0 3.8-2.6 8-5.8 4.1-3.2 8.1-6.2 8.8-6.6.9-.6 1.2 6 1.2 31.3v32l-9.2.3-9.3.3-.3 7.2-.3 7.3h53.2l-.3-7.3-.3-7.2-8.7-.3-8.8-.3V208h-14.8zM422.6 215.7l-9.6 7.6v14.9l3.8-2.7c2-1.6 5.5-4.3 7.7-6 2.2-1.7 4.6-3.5 5.3-3.9.9-.6 1.2 6 1.2 31.6v32.3h-18.5l-.3 7.2-.3 7.3h53.2l-.3-7.3-.3-7.2-8.7-.3-8.8-.3V208h-14.7zM865.1 216l-10.1 8v7c0 3.9.3 7 .7 7 .3 0 4-2.6 8.2-5.8 4.2-3.2 8.2-6.2 8.9-6.6.9-.6 1.2 6 1.2 31.3V289h-19v15l26.3-.2 26.2-.3v-14l-8.7-.3-8.8-.3V208h-14.9zM259.4 374.5c-9.4 4.7-13.7 14.4-15.7 34.8-1.3 14.3.1 31.8 3.4 41.5 4.3 12.6 12.1 19.2 22.9 19.2 18-.1 27.1-16.6 27-49.4-.1-16.4-1.9-27-6.2-35.5-4.6-9.2-9.2-12.2-19-12.8-6.4-.4-7.9-.1-12.4 2.2zm17 14.9c3.6 3.5 4.9 11.9 4.9 31.1 0 19.2-1.2 27.1-5 31.5-3.2 3.8-8.9 4.2-12 .7-3.8-4.1-4.6-8.6-5.1-27.3-.7-29.2 1.9-38.4 10.9-38.4 2.9 0 4.7.7 6.3 2.4zM192.8 381.1l-9.8 8v7c0 3.8.3 6.9.6 6.9s4-2.6 8.2-5.8c4.2-3.2 8.3-6.2 9-6.6.9-.6 1.2 6.1 1.2 31.8V455h-19v14h51.8l.4-7 .3-7H218l-.2-40.8-.3-40.7-7.5-.2-7.5-.2zM150.9 595c-5.9 1-9.6 3-13.5 7.2-6.3 6.6-9.1 16.5-8 28.5 1.1 13 6.9 23.2 14.9 26.2 7.2 2.8 16.6.6 21.7-5.1 3-3.2 3-3.2 3-.8 0 5.2-2.2 15.4-3.9 18.9-2.8 5.4-5.7 7.6-10.1 7.6-4.4 0-6.8-1.8-8.7-6.3-.7-1.7-1.6-3.2-2-3.2-.3 0-3.5.5-7.1 1.1l-6.4 1.1.6 3.2c2 10.1 9 17.2 18.7 18.8 16.9 2.9 28.6-8.2 32.6-30.9 2.2-12.4 1.3-36.2-1.6-45.5-5.2-16.2-15.3-23.2-30.2-20.8zm9.1 15.5c8.1 4.2 10.3 22.4 3.7 30-3.3 4-9.4 4.5-13.3 1.2-9.6-8.1-5.5-32.6 5.4-32.7.7 0 2.6.7 4.2 1.5zM642.228 1144.081c5.9-1 9.6-3 13.5-7.2 6.3-6.6 9.1-16.5 8-28.5-1.1-13-6.9-23.2-14.9-26.2-7.2-2.8-16.6-.6-21.7 5.1-3 3.2-3 3.2-3 .8 0-5.2 2.2-15.4 3.9-18.9 2.8-5.4 5.7-7.6 10.1-7.6 4.4 0 6.8 1.8 8.7 6.3.7 1.7 1.6 3.2 2 3.2.3 0 3.5-.5 7.1-1.1l6.4-1.1-.6-3.2c-2-10.1-9-17.2-18.7-18.8-16.9-2.9-28.6 8.2-32.6 30.9-2.2 12.4-1.3 36.2 1.6 45.5 5.2 16.2 15.3 23.2 30.2 20.8zm-9.1-15.5c-8.1-4.2-10.3-22.4-3.7-30 3.3-4 9.4-4.5 13.3-1.2 9.6 8.1 5.5 32.6-5.4 32.7-.7 0-2.6-.7-4.2-1.5zM1110.2 604.6c-7.2 3.6-12.5 10.9-13.8 19.2l-.6 4 7 .7c3.9.4 7.5.4 8 .1.5-.3 1.2-1.9 1.6-3.6.9-4.8 4.8-8 9.6-8 5.4 0 7.9 1.4 9.6 5.5 2.6 6.3 1.3 13.9-3.1 17.5-.9.7-4.4 1.6-7.8 1.9l-6.2.6v15l6.8.6c6 .5 7.2 1 10 3.8 2.9 2.8 3.2 3.7 3.2 9 0 7-1.7 10.5-6.2 12.6-6.6 3.2-15.5-.8-16.9-7.4-1.2-5.4-.9-5.3-8.6-4.5-4 .3-7.6.8-8 1-.9.5 1.5 10.2 3.4 13.9 2.1 3.9 7.3 8.8 11.8 11 1.9 1 6.5 2 10.1 2.3 19.2 1.4 30.4-8.7 30.4-27.3 0-6.9-.4-8.6-2.7-12.7-2.9-4.8-7.2-8.1-12.2-9.4l-2.9-.7 3.9-1.8c10.4-5 14.7-16.8 10.9-29.7-3.2-10.7-11.5-16.2-24.6-16.2-6.1 0-8.5.5-12.7 2.6zM224.6 832.1c-9.5 2.3-15.4 8.1-17.7 17.2-2.6 10.5 1.6 23.1 8.8 26.6 3.4 1.7 4.3 3.1 1.8 3.1-2.3 0-8.4 5.9-10.8 10.4-1.6 3.2-2.1 5.9-2.1 12.1-.1 10 2.1 16.1 7.4 20.9 6 5.4 10.3 6.9 20.1 7 7.4 0 9.3-.3 14.2-2.8 9.4-4.5 13.7-12.5 13.7-25.1 0-10.6-4.1-18.4-11.1-21.4-2.2-.9-3.9-1.8-3.9-2.1 0-.3 1.5-1.2 3.3-2 1.7-.8 4.5-3.4 6.2-5.8 2.4-3.5 3-5.5 3.3-11.3.6-9.7-1.2-15.4-6.4-20.5-5.8-5.9-17.6-8.7-26.8-6.3zm14.8 16c4.9 5.8 3 21-2.8 22.5-7.9 2-13.2-1.5-14.3-9.4-1.3-10 2.5-16.2 10.1-16.2 3.7 0 4.8.5 7 3.1zm-1.4 38.2c3.7 1.8 6 7.2 6 14 0 10.3-3.9 15.7-11.3 15.7-8.4 0-12.2-4.8-12.2-15.5 0-10.5 3.7-15.4 11.5-15.4 1.9-.1 4.6.5 6 1.2zM1031.2 870.4l-16.2 30.4V916h35v19h15v-19h10v-14h-10v-62h-17.5zm19 10.1-.3 21.5h-11c-10.2 0-11.1-.1-10.5-1.8.7-1.8 21.7-41.2 21.9-41.2.1 0 .1 9.7-.1 21.5zM847.9 994.2c0 1.8-.6 13.6-1.3 26.3-.7 12.6-1.1 23.3-.9 23.7.1.3 3.3.6 7 .6 6 0 7.2-.4 10-2.8 4.4-3.9 8.4-4.6 13-2.3 5.4 2.6 7.6 7 7.6 15.2 0 11.2-4.4 17.4-12.4 17.4-5 0-8.8-2.6-10.8-7.5l-1.6-3.9-7 .6c-3.8.4-7.3 1-7.8 1.4-.4.4 0 3 .8 5.7 3.7 12.4 12.8 18.9 26.5 18.7 8.5-.1 13.1-1.7 18.5-6.5 7.7-6.7 11.6-20.3 9.5-33.4-1.4-8.7-4.1-14.3-9-18.8-6.8-6.1-18.8-7.4-25.1-2.7-1.7 1.3-3.3 2.1-3.5 1.8-.3-.3-.2-5.5.2-11.6l.7-11.1H895v-14h-47zM381.2 1005.7l.3 7.8 19.1.5 19 .5-6.7 12.4c-11.9 21.8-18.4 40.9-19.6 57.3l-.6 8.8H409v-4.3c0-15 6.5-36.8 18-60.6 7.6-15.6 8-16.7 8-23.2V998h-54.1zM909.2 151.9c-3.3 4.1-2.9 5.1 1.7 5.1 4.2 0 6.2 6 2.5 7.4-2 .8-5.4-1.1-5.4-2.9 0-1.4-3.7-3.1-4.6-2.2-1.1 1 2.6 6.4 5.1 7.5 6 2.8 11.5.4 11.5-5.1 0-2.6-4-6.7-6.6-6.7-.8 0-1.4-.4-1.4-.9 0-2.1 2.1-2.1 6-.1 3.8 1.9 6 2 6 .1 0-.9-9.2-6.1-10.7-6.1-.5 0-2.4 1.8-4.1 3.9zM366.7 147.7c-5.1 2.9-5.2 3.2-2.7 9.8 1.2 3.2 2.3 3.2 5.3-.1 3-3.2 6.7-2.6 6.7 1.1 0 2.6-3 4.8-5.2 4-.7-.3-2.2.1-3.3.9-1.9 1.4-1.9 1.5.8 2.1 3.8 1 7.5-.1 10.3-3.2 3.1-3.3 2.8-6.9-.7-9.5-2.4-1.8-2.8-1.9-6.3-.4-4.6 1.9-5 2-5.4.8-.2-.6 1.7-2.2 4.2-3.7s4.3-3.1 4-3.6c-.9-1.4-2.6-1-7.7 1.8zM350.5 156.8c-5.4 3-5.8 4.1-3.2 10.4l1.3 3.3 2.5-2.6c3.5-3.7 5.6-4.2 7.4-1.7 1.3 2 1.3 2.4-.2 4.1-1.1 1.1-2.5 1.6-3.8 1.3-1.2-.3-3 .1-4.1.8-1.8 1.4-1.8 1.5.9 2.5 5.2 2 12.7-3 12.7-8.5 0-4.7-6.3-7-10.8-3.8-2.1 1.4-4.2 1.2-4.2-.5 0-.5 2-1.9 4.5-3.2 4.2-2.2 5.2-3.9 2.9-4.6-.5-.1-3.1 1-5.9 2.5zM1111.4 340.5c.3.8.9 2.2 1.2 3 .4.9-1.1 2.4-4.5 4.5-5.4 3.4-5.9 4.1-3.7 5.9 1.9 1.6 16.8-7.2 15.9-9.4-.3-.8-1.3-1.5-2.3-1.5-.9 0-2.5-.9-3.5-2-2.1-2.4-4-2.6-3.1-.5zM1116.4 357c-4.2 2.7-6 7-4.4 10.2 3.9 7.3 9.8 7.9 16.8 1.5 2.9-2.7 2.8-6.8-.4-10.6-3.1-3.7-7.3-4.1-12-1.1zm10.5 3.8c1.2 2.3.5 3.4-3.9 6.1-4.2 2.5-6.6 2.7-7.4.5-1-2.7-.7-3.2 3.1-5.9 4.4-3 6.9-3.2 8.2-.7zM159.5 345.4c-5.3 5.3-3.8 11.1 3.9 15 5 2.5 8.4 1.3 11.1-3.7 1.8-3.4 1.9-3.9.5-6.4-2-3.5-7.6-7.3-10.7-7.3-1.3 0-3.5 1.1-4.8 2.4zm8.2 4.1c4.5 2.7 5.5 5.3 2.8 7.5-1.2 1-2.3.7-6-1.4-4.5-2.7-5.6-5.1-3.3-7.4 1.6-1.6 1.4-1.6 6.5 1.3zM148.3 363.2l-3.2 5.3 3.7 3.8c3.4 3.4 3.8 3.6 4.9 2 .7-.9 1.3-2.4 1.3-3.4 0-2.4 2.6-4.2 5-3.4 3.4 1.1 2.5 5.2-1.7 7.4-2.7 1.4-3 4.1-.5 4.1 2.4 0 6.9-4.8 7.7-8.2.8-3-.7-6.3-3.5-7.8s-6.6.3-8.5 4.1c-1.3 2.4-1.9 2.9-2.8 2-.9-.9-.6-2.2 1.1-5.2 2.1-3.6 2.2-5.9.4-5.9-.4 0-2.1 2.4-3.9 5.2zM84.9 621.9c-1.8 1.4-2.4 2.9-2.4 6s-.3 4.1-1.4 3.9c-.9-.2-1.4-1.9-1.5-5.3-.1-3.9-.5-5-1.8-5.3-1.6-.3-1.8.5-1.8 6.2 0 3.6.3 6.7.8 6.9.4.3 2.8.8 5.5 1.2 4.3.7 4.7.6 4.7-1.3 0-1.2-.4-2.4-1-2.7-1.5-.9-1.2-4.1.5-5.5 2.4-2 5.5-.3 5.5 3.1 0 1.6-.4 2.9-1 2.9-.5 0-1 1.1-1 2.5 0 3 1.1 3.2 3.3.7 1.1-1.2 1.7-3.6 1.7-6.5 0-3.7-.5-4.9-2.6-6.6-3.3-2.6-4.5-2.6-7.5-.2zM88 640.5c0 1.2-1.3 1.5-6 1.5-5.9 0-6 .1-6 2.7 0 2.2 1.2 3.7 5.7 7.2 7.6 5.8 8.7 5.8 9.1-.2.3-3.9.6-4.7 2.3-4.7 1.4 0 1.9-.7 1.9-2.5s-.5-2.5-2-2.5c-1.1 0-2-.7-2-1.5s-.7-1.5-1.5-1.5-1.5.7-1.5 1.5zm0 9.6v3l-3.5-2.7c-1.9-1.4-3.5-2.8-3.5-3 0-.2 1.6-.4 3.5-.4 3.2 0 3.5.2 3.5 3.1zM1196.8 621.7c-.3 2.7-.6 2.8-6.5 3.1-5.5.3-6.3.6-6.3 2.2 0 1.8.7 2 9 2 9.5 0 10.4-.5 7.5-4.4-.8-1.1-1.5-2.8-1.5-3.8 0-2.9-1.8-2.1-2.2.9zM1184.9 638.7c-2.1 2.4-1.8 9.7.5 12.2 2.3 2.6 6.7 2.7 8.9.3 1-1 1.7-3.5 1.7-5.5 0-2.6.4-3.7 1.5-3.7s1.5 1.2 1.5 5 .4 5 1.5 5c1.2 0 1.5-1.4 1.5-6.4v-6.4l-3.6-.6c-1.9-.4-4.2-1-5.1-1.3-1.3-.5-1.4.1-.8 4.4.5 3.7.3 5.2-.8 6.1-3.3 2.8-7.3-2.4-4.3-5.7 2-2.2 2.1-5.1.2-5.1-.7 0-2 .7-2.7 1.7zM146.1 903.9c-1.1.7-.8 1.6 1.3 4.7 2.2 3.3 2.4 4 1.1 5.3-2 2.3-.1 5.5 2.4 4.2 1.2-.7 2.2-.6 2.9.1.8.8 1.4.4 2.1-1.4.5-1.4 2.8-3.6 5-4.8 3.6-2.1 3.8-2.5 2.9-4.6-.6-1.3-1.8-2.6-2.7-2.8-3.8-1.1-13.7-1.6-15-.7zm11.8 3.1c1 0 .3.9-1.7 2.1-3.2 2.1-3.3 2.1-4.7.3-2.2-2.9-1.8-3.7 1.6-3 1.7.3 3.9.6 4.8.6zM161.4 917.4c-3.5 1.5-7.4 6-7.4 8.5 0 2.8 3.8 8 6.4 8.7 3.3.8 6.1-.2 10.2-3.8 3.7-3.3 4.2-5.4 1.9-9.8-2.5-4.9-5.7-5.9-11.1-3.6zm7.9 4.8c1.6 2.4.2 4.5-4.3 6.8-3.3 1.7-4.5 1.9-5.6.9-2.5-2.1-1.6-4.7 2.9-7.3 4.5-2.8 5.5-2.8 7-.4zM1119.6 899.1c-4.5 5.3-3.2 10.5 3.4 13.9 5.2 2.7 6.6 2.5 10.1-.9 4.9-5 3.5-11.2-3.5-14.5-4.9-2.3-7.1-2-10 1.5zm9.2 3.9c4.6 3.3 4.9 4.1 2.6 6.4-2.1 2.1-2.5 2.1-7.2-1.4-4.3-3.1-5.1-4.7-3-6.8 1.8-1.8 3.1-1.5 7.6 1.8zM1109.8 913.7c-3.9 4.5-4.8 9.2-2.3 11.3 2.1 1.8 2.9.6 3-4.3 0-3.8.2-4.2 2.5-4.2 2.4 0 2.5.3 2.8 7.2.2 4.8.8 7.5 1.8 8.4.8.6 1.6 1 1.8.8.1-.2 2.2-3.3 4.6-6.8 3.3-5 3.9-6.5 2.9-7.2-1-.6-1.9-.2-2.9 1.3-.8 1.2-2.3 3.1-3.2 4.2-1.7 2-1.8 1.9-1.6-3.5.1-3.5-.3-6.3-1.1-7.3-1.8-2.1-6.4-2-8.3.1zM348.4 1106.2c-1.2 1.9 2.5 3.9 4.7 2.5 1.5-.9 2.2-.8 3.5.5 2.3 2.3.4 4.7-3.1 4-2.9-.5-3.2.4-.9 2.9 1.8 2 1.3 4.9-.8 4.9s-3.9-1.6-4.2-3.4c-.2-1.7-2.3-3.6-3.8-3.6-.5 0-.8 1-.8 2.3 0 3.6 6.4 8.7 10.8 8.7 2.9 0 5.4-3.3 4.7-6.2-.5-2-.2-2.6 1.4-3.1 2.1-.5 2.9-4.1 1.3-6.3-2.6-3.7-11.1-5.9-12.8-3.2zM366 1117.5c-3.7 3.8-3.5 4.4 1.3 6 2.4.7 3.3 1.7 3.5 3.6.2 1.7-.3 2.9-1.3 3.3-2 .7-5.5-1-5.5-2.7 0-.7-.9-1.8-2-2.5-1.7-1-2.1-1-2.6.2-1.4 3.6 4.7 8.6 10.4 8.6 3.4 0 6.2-2.7 6.2-5.9 0-2.4-4.4-7.1-6.8-7.1-1.2 0-1.2-.3-.2-1.5 1.1-1.3 1.8-1.1 5.5 1.1 2.7 1.6 4.6 2.1 5 1.4.3-.5.4-1.4 0-1.9-.4-.7-9.2-6.1-9.9-6.1-.1 0-1.7 1.6-3.6 3.5zM922.3 1106l-5.1 2.9 1.4 4.7c.8 2.6 1.6 4.9 1.8 5.1.2.2 1.7-.8 3.4-2.2 3.4-2.8 5.4-3.1 7.1-1.1 2.2 2.6-1.9 6.9-4.9 5.1-.5-.3-1.9 0-3.1.9l-2.1 1.4 2.2 1.2c4.4 2.3 13-3 13-8 0-5.3-6.1-7.7-10.9-4.4-1.9 1.4-2.5 1.4-3.2.3-.6-1 .4-2.1 3.6-3.9 4.2-2.3 5.2-4 2.9-4.7-.5-.1-3.2 1.1-6.1 2.7zM906.5 1114.4c-4.6 2-6.9 5.1-6.1 8.1.6 2.2.9 2.4 2.6 1.5 1.1-.6 2-2.1 2-3.5 0-1.5.7-2.6 2-3 4.6-1.5 5.3 2.5 1.5 8.5-2.4 3.8-3.4 9-1.7 9 1.5 0 14.2-7.1 14.2-8 0-2-2-1.9-5.5.1-2 1.2-3.8 1.9-4.1 1.7-.2-.3.7-2.5 2.1-4.9 3-5.3 3.1-6.3.5-8.9-2.3-2.3-3.4-2.4-7.5-.6zM626.5 1186.2c-2.1 1.2-3.5 2.8-3.5 4 0 1.5 4.8.8 5.4-.8.8-2.1 5-1.4 5.4.8.2 1.2-.6 2.1-2.2 2.8-3 1.1-3.5 3-.7 3 1 0 2.5.7 3.2 1.6 1.1 1.4 1 1.8-.6 3-2.4 1.8-3 1.8-4.9-.1-1.6-1.6-5.6-2.1-5.6-.6 0 1.4 2.7 3.9 5.1 4.6 6.1 2 13.3-3 10.9-7.4-.6-1.2-1.6-2.1-2.2-2.1-.6 0-.3-.9.6-1.9 4.5-5-4.4-10.6-10.9-6.9zM646.2 1186c-3 1.2-4.5 5.5-3.9 10.9 1.3 11.7 16.7 10.1 16.7-1.7 0-4.8-1.2-7.2-4.1-8.7-3.2-1.7-5.4-1.8-8.7-.5zm6.6 3.2c1.9 1.9 1.5 10.5-.5 11.7-3.2 1.8-5.3-.5-5.3-5.7 0-4.7 1.2-7.2 3.5-7.2.6 0 1.6.5 2.3 1.2z" />
   </g>
</svg>